<svg xmlns="http://www.w3.org/2000/svg" xmlns:xlink="http://www.w3.org/1999/xlink" width="2240" zoomAndPan="magnify" viewBox="0 0 1680 944.999993" height="1260" preserveAspectRatio="xMidYMid meet" version="1.0"><defs><g/><clipPath id="dedf56cc79"><rect x="0" width="1434" y="0" height="299"/></clipPath></defs><path fill="#000000" d="M 43.410156 560.9375 C 37.4375 560.9375 32.347656 558.832031 28.136719 554.621094 C 23.925781 550.410156 21.820312 545.320312 21.820312 539.347656 L 21.820312 405.667969 C 21.820312 399.695312 23.925781 394.566406 28.136719 390.28125 C 32.347656 385.992188 37.4375 383.847656 43.410156 383.847656 L 177.089844 383.847656 C 183.0625 383.847656 188.191406 385.992188 192.476562 390.28125 C 196.765625 394.566406 198.910156 399.695312 198.910156 405.667969 L 198.910156 539.347656 C 198.910156 545.320312 196.765625 550.410156 192.476562 554.621094 C 188.191406 558.832031 183.0625 560.9375 177.089844 560.9375 Z M 41.34375 403.601562 L 41.34375 541.414062 L 179.15625 541.414062 L 179.15625 403.601562 L 155.269531 403.601562 L 155.269531 452.984375 C 155.269531 455.1875 154.351562 456.8125 152.511719 457.851562 C 150.675781 458.894531 148.835938 458.878906 147 457.808594 L 138.042969 452.523438 C 136.359375 451.453125 134.597656 450.917969 132.757812 450.917969 C 130.921875 450.917969 129.160156 451.453125 127.476562 452.523438 L 118.75 457.808594 C 116.757812 458.878906 114.84375 458.894531 113.007812 457.851562 C 111.167969 456.8125 110.25 455.1875 110.25 452.984375 L 110.25 403.601562 Z M 41.34375 541.414062 L 41.34375 403.601562 Z M 41.34375 541.414062 " fill-opacity="1" fill-rule="nonzero"/><g transform="matrix(1, 0, 0, 1, 246, 323)"><g clip-path="url(#dedf56cc79)"><g fill="#000000" fill-opacity="1"><g transform="translate(0.825404, 237.211035)"><g><path d="M 63.765625 2.28125 C 53.296875 2.28125 43.945312 -0.394531 35.71875 -5.75 C 27.488281 -11.101562 20.992188 -18.851562 16.234375 -29 C 11.484375 -39.15625 9.109375 -51.503906 9.109375 -66.046875 C 9.109375 -80.828125 11.546875 -93.269531 16.421875 -103.375 C 21.296875 -113.488281 27.847656 -121.160156 36.078125 -126.390625 C 44.304688 -131.617188 53.457031 -134.234375 63.53125 -134.234375 C 70.632812 -134.234375 76.660156 -133.070312 81.609375 -130.75 C 86.566406 -128.4375 90.664062 -125.503906 93.90625 -121.953125 C 97.144531 -118.398438 99.679688 -114.707031 101.515625 -110.875 L 102.484375 -110.875 L 102.484375 -178.59375 L 138.203125 -178.59375 L 138.203125 0 L 102.953125 0 L 102.953125 -20.96875 L 101.640625 -20.96875 C 99.796875 -17.132812 97.21875 -13.4375 93.90625 -9.875 C 90.59375 -6.320312 86.476562 -3.40625 81.5625 -1.125 C 76.644531 1.144531 70.710938 2.28125 63.765625 2.28125 Z M 74.3125 -26.484375 C 80.46875 -26.484375 85.703125 -28.140625 90.015625 -31.453125 C 94.328125 -34.773438 97.640625 -39.390625 99.953125 -45.296875 C 102.273438 -51.210938 103.4375 -58.164062 103.4375 -66.15625 C 103.4375 -74.144531 102.296875 -81.078125 100.015625 -86.953125 C 97.742188 -92.828125 94.429688 -97.378906 90.078125 -100.609375 C 85.722656 -103.847656 80.46875 -105.46875 74.3125 -105.46875 C 68.238281 -105.46875 63.0625 -103.828125 58.78125 -100.546875 C 54.507812 -97.273438 51.273438 -92.679688 49.078125 -86.765625 C 46.878906 -80.859375 45.78125 -73.988281 45.78125 -66.15625 C 45.78125 -58.25 46.878906 -51.316406 49.078125 -45.359375 C 51.273438 -39.410156 54.507812 -34.773438 58.78125 -31.453125 C 63.0625 -28.140625 68.238281 -26.484375 74.3125 -26.484375 Z M 74.3125 -26.484375 "/></g></g></g><g fill="#000000" fill-opacity="1"><g transform="translate(153.762271, 237.211035)"><g><path d="M 74.4375 2.640625 C 61.09375 2.640625 49.523438 -0.210938 39.734375 -5.921875 C 29.941406 -11.640625 22.390625 -19.632812 17.078125 -29.90625 C 11.765625 -40.175781 9.109375 -52.101562 9.109375 -65.6875 C 9.109375 -79.425781 11.765625 -91.425781 17.078125 -101.6875 C 22.390625 -111.957031 29.941406 -119.945312 39.734375 -125.65625 C 49.523438 -131.375 61.09375 -134.234375 74.4375 -134.234375 C 87.695312 -134.234375 99.21875 -131.375 109 -125.65625 C 118.789062 -119.945312 126.34375 -111.957031 131.65625 -101.6875 C 136.976562 -91.425781 139.640625 -79.425781 139.640625 -65.6875 C 139.640625 -52.101562 136.976562 -40.175781 131.65625 -29.90625 C 126.34375 -19.632812 118.789062 -11.640625 109 -5.921875 C 99.21875 -0.210938 87.695312 2.640625 74.4375 2.640625 Z M 74.4375 -25.65625 C 80.664062 -25.65625 85.914062 -27.367188 90.1875 -30.796875 C 94.46875 -34.234375 97.722656 -38.96875 99.953125 -45 C 102.191406 -51.039062 103.3125 -57.972656 103.3125 -65.796875 C 103.3125 -73.710938 102.191406 -80.664062 99.953125 -86.65625 C 97.722656 -92.644531 94.46875 -97.359375 90.1875 -100.796875 C 85.914062 -104.234375 80.664062 -105.953125 74.4375 -105.953125 C 68.195312 -105.953125 62.921875 -104.234375 58.609375 -100.796875 C 54.296875 -97.359375 51.039062 -92.644531 48.84375 -86.65625 C 46.644531 -80.664062 45.546875 -73.710938 45.546875 -65.796875 C 45.546875 -57.972656 46.644531 -51.039062 48.84375 -45 C 51.039062 -38.96875 54.273438 -34.234375 58.546875 -30.796875 C 62.828125 -27.367188 68.125 -25.65625 74.4375 -25.65625 Z M 74.4375 -25.65625 "/></g></g></g><g fill="#000000" fill-opacity="1"><g transform="translate(302.504174, 237.211035)"><g><path d="M 74.1875 2.640625 C 60.925781 2.640625 49.421875 -0.210938 39.671875 -5.921875 C 29.921875 -11.640625 22.390625 -19.632812 17.078125 -29.90625 C 11.765625 -40.175781 9.109375 -52.101562 9.109375 -65.6875 C 9.109375 -79.34375 11.765625 -91.320312 17.078125 -101.625 C 22.390625 -111.9375 29.921875 -119.945312 39.671875 -125.65625 C 49.421875 -131.375 60.925781 -134.234375 74.1875 -134.234375 C 82.257812 -134.234375 89.671875 -133.175781 96.421875 -131.0625 C 103.171875 -128.945312 109.144531 -125.890625 114.34375 -121.890625 C 119.539062 -117.898438 123.796875 -113.085938 127.109375 -107.453125 C 130.421875 -101.816406 132.640625 -95.484375 133.765625 -88.453125 L 100.203125 -83.65625 C 99.484375 -87.09375 98.40625 -90.171875 96.96875 -92.890625 C 95.53125 -95.609375 93.726562 -97.945312 91.5625 -99.90625 C 89.40625 -101.863281 86.910156 -103.359375 84.078125 -104.390625 C 81.242188 -105.429688 78.066406 -105.953125 74.546875 -105.953125 C 68.234375 -105.953125 62.941406 -104.273438 58.671875 -100.921875 C 54.398438 -97.566406 51.144531 -92.867188 48.90625 -86.828125 C 46.664062 -80.796875 45.546875 -73.785156 45.546875 -65.796875 C 45.546875 -57.890625 46.664062 -50.921875 48.90625 -44.890625 C 51.144531 -38.859375 54.398438 -34.144531 58.671875 -30.75 C 62.941406 -27.351562 68.234375 -25.65625 74.546875 -25.65625 C 78.066406 -25.65625 81.242188 -26.191406 84.078125 -27.265625 C 86.910156 -28.347656 89.425781 -29.882812 91.625 -31.875 C 93.820312 -33.875 95.660156 -36.289062 97.140625 -39.125 C 98.617188 -41.96875 99.679688 -45.1875 100.328125 -48.78125 L 133.875 -43.875 C 132.84375 -36.757812 130.664062 -30.363281 127.34375 -24.6875 C 124.03125 -19.019531 119.773438 -14.125 114.578125 -10 C 109.390625 -5.882812 103.378906 -2.75 96.546875 -0.59375 C 89.710938 1.5625 82.257812 2.640625 74.1875 2.640625 Z M 74.1875 2.640625 "/></g></g></g><g fill="#000000" fill-opacity="1"><g transform="translate(445.133384, 237.211035)"><g><path d="M 67.71875 2.75 C 56.925781 2.75 47.351562 1.171875 39 -1.984375 C 30.65625 -5.140625 23.863281 -9.710938 18.625 -15.703125 C 13.394531 -21.691406 10.101562 -28.882812 8.75 -37.28125 L 42.421875 -41.828125 C 43.941406 -35.753906 46.859375 -31.160156 51.171875 -28.046875 C 55.492188 -24.929688 61.25 -23.375 68.4375 -23.375 C 75.226562 -23.375 80.582031 -24.671875 84.5 -27.265625 C 88.414062 -29.859375 90.375 -33.15625 90.375 -37.15625 C 90.375 -40.59375 88.953125 -43.410156 86.109375 -45.609375 C 83.273438 -47.804688 79.023438 -49.503906 73.359375 -50.703125 L 50.453125 -55.25 C 37.671875 -57.882812 28.082031 -62.359375 21.6875 -68.671875 C 15.300781 -74.984375 12.109375 -83.132812 12.109375 -93.125 C 12.109375 -101.519531 14.40625 -108.789062 19 -114.9375 C 23.59375 -121.09375 30.0625 -125.847656 38.40625 -129.203125 C 46.757812 -132.554688 56.53125 -134.234375 67.71875 -134.234375 C 78.425781 -134.234375 87.691406 -132.710938 95.515625 -129.671875 C 103.347656 -126.640625 109.640625 -122.328125 114.390625 -116.734375 C 119.148438 -111.140625 122.171875 -104.550781 123.453125 -96.96875 L 91.453125 -92.53125 C 90.335938 -97.25 87.835938 -101.101562 83.953125 -104.09375 C 80.078125 -107.09375 74.90625 -108.59375 68.4375 -108.59375 C 62.445312 -108.59375 57.515625 -107.332031 53.640625 -104.8125 C 49.765625 -102.300781 47.828125 -99.046875 47.828125 -95.046875 C 47.828125 -91.691406 49.144531 -88.875 51.78125 -86.59375 C 54.414062 -84.320312 58.726562 -82.585938 64.71875 -81.390625 L 88.6875 -76.59375 C 101.632812 -74.03125 111.242188 -69.789062 117.515625 -63.875 C 123.785156 -57.96875 126.921875 -50.257812 126.921875 -40.75 C 126.921875 -32.039062 124.40625 -24.429688 119.375 -17.921875 C 114.34375 -11.410156 107.367188 -6.335938 98.453125 -2.703125 C 89.546875 0.929688 79.300781 2.75 67.71875 2.75 Z M 67.71875 2.75 "/></g></g></g><g fill="#000000" fill-opacity="1"><g transform="translate(580.451388, 237.211035)"><g><path d="M 78.390625 0 L 32.125 0 L 32.125 -31.40625 L 76.59375 -31.40625 C 88.175781 -31.40625 97.863281 -33.484375 105.65625 -37.640625 C 113.445312 -41.796875 119.300781 -48.164062 123.21875 -56.75 C 127.132812 -65.34375 129.09375 -76.226562 129.09375 -89.40625 C 129.09375 -102.519531 127.132812 -113.347656 123.21875 -121.890625 C 119.300781 -130.441406 113.46875 -136.796875 105.71875 -140.953125 C 97.96875 -145.109375 88.335938 -147.1875 76.828125 -147.1875 L 31.28125 -147.1875 L 31.28125 -178.59375 L 78.984375 -178.59375 C 96.960938 -178.59375 112.40625 -175.015625 125.3125 -167.859375 C 138.21875 -160.710938 148.164062 -150.460938 155.15625 -137.109375 C 162.144531 -123.765625 165.640625 -107.863281 165.640625 -89.40625 C 165.640625 -70.875 162.160156 -54.9375 155.203125 -41.59375 C 148.253906 -28.25 138.25 -17.976562 125.1875 -10.78125 C 112.125 -3.59375 96.523438 0 78.390625 0 Z M 52.140625 -178.59375 L 52.140625 0 L 15.46875 0 L 15.46875 -178.59375 Z M 52.140625 -178.59375 "/></g></g></g><g fill="#000000" fill-opacity="1"><g transform="translate(756.520542, 237.211035)"><g><path d="M 14.75 0 L 14.75 -132.328125 L 50.453125 -132.328125 L 50.453125 0 Z M 32.609375 -149.46875 C 27.097656 -149.46875 22.40625 -151.265625 18.53125 -154.859375 C 14.65625 -158.453125 12.71875 -162.847656 12.71875 -168.046875 C 12.71875 -173.234375 14.65625 -177.625 18.53125 -181.21875 C 22.40625 -184.820312 27.097656 -186.625 32.609375 -186.625 C 38.117188 -186.625 42.789062 -184.820312 46.625 -181.21875 C 50.46875 -177.625 52.390625 -173.234375 52.390625 -168.046875 C 52.390625 -162.847656 50.46875 -158.453125 46.625 -154.859375 C 42.789062 -151.265625 38.117188 -149.46875 32.609375 -149.46875 Z M 32.609375 -149.46875 "/></g></g></g><g fill="#000000" fill-opacity="1"><g transform="translate(821.722466, 237.211035)"><g><path d="M 14.75 0 L 14.75 -132.328125 L 49.375 -132.328125 L 49.375 -109.4375 L 50.578125 -109.4375 C 52.972656 -117.5 56.96875 -123.585938 62.5625 -127.703125 C 68.15625 -131.816406 74.789062 -133.875 82.46875 -133.875 C 84.382812 -133.875 86.378906 -133.796875 88.453125 -133.640625 C 90.535156 -133.484375 92.332031 -133.242188 93.84375 -132.921875 L 93.84375 -101.28125 C 92.332031 -101.757812 90.078125 -102.140625 87.078125 -102.421875 C 84.078125 -102.703125 81.179688 -102.84375 78.390625 -102.84375 C 73.109375 -102.84375 68.332031 -101.679688 64.0625 -99.359375 C 59.789062 -97.046875 56.453125 -93.769531 54.046875 -89.53125 C 51.648438 -85.300781 50.453125 -80.304688 50.453125 -74.546875 L 50.453125 0 Z M 14.75 0 "/></g></g></g><g fill="#000000" fill-opacity="1"><g transform="translate(914.970779, 237.211035)"><g><path d="M 74.671875 2.640625 C 61.171875 2.640625 49.523438 -0.15625 39.734375 -5.75 C 29.941406 -11.34375 22.390625 -19.253906 17.078125 -29.484375 C 11.765625 -39.710938 9.109375 -51.738281 9.109375 -65.5625 C 9.109375 -79.226562 11.742188 -91.191406 17.015625 -101.453125 C 22.296875 -111.722656 29.726562 -119.753906 39.3125 -125.546875 C 48.90625 -131.335938 60.132812 -134.234375 73 -134.234375 C 81.863281 -134.234375 90.09375 -132.796875 97.6875 -129.921875 C 105.28125 -127.046875 111.929688 -122.789062 117.640625 -117.15625 C 123.347656 -111.53125 127.78125 -104.5 130.9375 -96.0625 C 134.09375 -87.632812 135.671875 -77.90625 135.671875 -66.875 L 135.671875 -56.9375 L 23.375 -56.9375 L 23.375 -79.46875 L 118.296875 -79.46875 L 101.640625 -73.59375 C 101.640625 -80.46875 100.5625 -86.421875 98.40625 -91.453125 C 96.25 -96.484375 93.070312 -100.375 88.875 -103.125 C 84.675781 -105.882812 79.503906 -107.265625 73.359375 -107.265625 C 67.203125 -107.265625 61.960938 -105.863281 57.640625 -103.0625 C 53.328125 -100.269531 50.03125 -96.4375 47.75 -91.5625 C 45.476562 -86.695312 44.34375 -81.109375 44.34375 -74.796875 L 44.34375 -58.96875 C 44.34375 -51.539062 45.617188 -45.226562 48.171875 -40.03125 C 50.734375 -34.832031 54.351562 -30.894531 59.03125 -28.21875 C 63.707031 -25.550781 69.160156 -24.21875 75.390625 -24.21875 C 79.628906 -24.21875 83.484375 -24.832031 86.953125 -26.0625 C 90.429688 -27.300781 93.390625 -29.097656 95.828125 -31.453125 C 98.265625 -33.816406 100.125 -36.71875 101.40625 -40.15625 L 133.875 -35.484375 C 131.800781 -27.804688 128.066406 -21.109375 122.671875 -15.390625 C 117.273438 -9.679688 110.519531 -5.25 102.40625 -2.09375 C 94.300781 1.0625 85.054688 2.640625 74.671875 2.640625 Z M 74.671875 2.640625 "/></g></g></g><g fill="#000000" fill-opacity="1"><g transform="translate(1059.277925, 237.211035)"><g><path d="M 74.1875 2.640625 C 60.925781 2.640625 49.421875 -0.210938 39.671875 -5.921875 C 29.921875 -11.640625 22.390625 -19.632812 17.078125 -29.90625 C 11.765625 -40.175781 9.109375 -52.101562 9.109375 -65.6875 C 9.109375 -79.34375 11.765625 -91.320312 17.078125 -101.625 C 22.390625 -111.9375 29.921875 -119.945312 39.671875 -125.65625 C 49.421875 -131.375 60.925781 -134.234375 74.1875 -134.234375 C 82.257812 -134.234375 89.671875 -133.175781 96.421875 -131.0625 C 103.171875 -128.945312 109.144531 -125.890625 114.34375 -121.890625 C 119.539062 -117.898438 123.796875 -113.085938 127.109375 -107.453125 C 130.421875 -101.816406 132.640625 -95.484375 133.765625 -88.453125 L 100.203125 -83.65625 C 99.484375 -87.09375 98.40625 -90.171875 96.96875 -92.890625 C 95.53125 -95.609375 93.726562 -97.945312 91.5625 -99.90625 C 89.40625 -101.863281 86.910156 -103.359375 84.078125 -104.390625 C 81.242188 -105.429688 78.066406 -105.953125 74.546875 -105.953125 C 68.234375 -105.953125 62.941406 -104.273438 58.671875 -100.921875 C 54.398438 -97.566406 51.144531 -92.867188 48.90625 -86.828125 C 46.664062 -80.796875 45.546875 -73.785156 45.546875 -65.796875 C 45.546875 -57.890625 46.664062 -50.921875 48.90625 -44.890625 C 51.144531 -38.859375 54.398438 -34.144531 58.671875 -30.75 C 62.941406 -27.351562 68.234375 -25.65625 74.546875 -25.65625 C 78.066406 -25.65625 81.242188 -26.191406 84.078125 -27.265625 C 86.910156 -28.347656 89.425781 -29.882812 91.625 -31.875 C 93.820312 -33.875 95.660156 -36.289062 97.140625 -39.125 C 98.617188 -41.96875 99.679688 -45.1875 100.328125 -48.78125 L 133.875 -43.875 C 132.84375 -36.757812 130.664062 -30.363281 127.34375 -24.6875 C 124.03125 -19.019531 119.773438 -14.125 114.578125 -10 C 109.390625 -5.882812 103.378906 -2.75 96.546875 -0.59375 C 89.710938 1.5625 82.257812 2.640625 74.1875 2.640625 Z M 74.1875 2.640625 "/></g></g></g><g fill="#000000" fill-opacity="1"><g transform="translate(1201.907161, 237.211035)"><g><path d="M 82.578125 -132.328125 L 82.578125 -104.875 L 2.28125 -104.875 L 2.28125 -132.328125 Z M 21.578125 -164.796875 L 57.296875 -164.796875 L 57.296875 -39.1875 C 57.296875 -34.957031 58.234375 -31.863281 60.109375 -29.90625 C 61.984375 -27.945312 65.117188 -26.96875 69.515625 -26.96875 C 71.117188 -26.96875 73.175781 -27.109375 75.6875 -27.390625 C 78.207031 -27.671875 80.144531 -27.929688 81.5 -28.171875 L 85.453125 -0.953125 C 81.859375 -0.078125 78.101562 0.535156 74.1875 0.890625 C 70.269531 1.253906 66.476562 1.4375 62.8125 1.4375 C 49.21875 1.4375 38.945312 -1.695312 32 -7.96875 C 25.050781 -14.238281 21.578125 -23.410156 21.578125 -35.484375 Z M 21.578125 -164.796875 "/></g></g></g><g fill="#000000" fill-opacity="1"><g transform="translate(1289.642051, 237.211035)"><g><path d="M 74.671875 2.640625 C 61.171875 2.640625 49.523438 -0.15625 39.734375 -5.75 C 29.941406 -11.34375 22.390625 -19.253906 17.078125 -29.484375 C 11.765625 -39.710938 9.109375 -51.738281 9.109375 -65.5625 C 9.109375 -79.226562 11.742188 -91.191406 17.015625 -101.453125 C 22.296875 -111.722656 29.726562 -119.753906 39.3125 -125.546875 C 48.90625 -131.335938 60.132812 -134.234375 73 -134.234375 C 81.863281 -134.234375 90.09375 -132.796875 97.6875 -129.921875 C 105.28125 -127.046875 111.929688 -122.789062 117.640625 -117.15625 C 123.347656 -111.53125 127.78125 -104.5 130.9375 -96.0625 C 134.09375 -87.632812 135.671875 -77.90625 135.671875 -66.875 L 135.671875 -56.9375 L 23.375 -56.9375 L 23.375 -79.46875 L 118.296875 -79.46875 L 101.640625 -73.59375 C 101.640625 -80.46875 100.5625 -86.421875 98.40625 -91.453125 C 96.25 -96.484375 93.070312 -100.375 88.875 -103.125 C 84.675781 -105.882812 79.503906 -107.265625 73.359375 -107.265625 C 67.203125 -107.265625 61.960938 -105.863281 57.640625 -103.0625 C 53.328125 -100.269531 50.03125 -96.4375 47.75 -91.5625 C 45.476562 -86.695312 44.34375 -81.109375 44.34375 -74.796875 L 44.34375 -58.96875 C 44.34375 -51.539062 45.617188 -45.226562 48.171875 -40.03125 C 50.734375 -34.832031 54.351562 -30.894531 59.03125 -28.21875 C 63.707031 -25.550781 69.160156 -24.21875 75.390625 -24.21875 C 79.628906 -24.21875 83.484375 -24.832031 86.953125 -26.0625 C 90.429688 -27.300781 93.390625 -29.097656 95.828125 -31.453125 C 98.265625 -33.816406 100.125 -36.71875 101.40625 -40.15625 L 133.875 -35.484375 C 131.800781 -27.804688 128.066406 -21.109375 122.671875 -15.390625 C 117.273438 -9.679688 110.519531 -5.25 102.40625 -2.09375 C 94.300781 1.0625 85.054688 2.640625 74.671875 2.640625 Z M 74.671875 2.640625 "/></g></g></g></g></g></svg>